<svg width="23" height="24" viewBox="0 0 23 24" fill="none" xmlns="http://www.w3.org/2000/svg">
<path d="M22.9375 12.2812C22.9375 14.4688 22.4688 16.4219 21.5312 18.1406C20.5938 19.8594 19.2656 21.2031 17.5469 22.1719C15.8594 23.1406 13.9062 23.625 11.6875 23.625C9.59375 23.625 7.65625 23.0938 5.875 22.0312C4.09375 21 2.67188 19.5938 1.60938 17.8125C0.578125 16.0312 0.0625 14.0938 0.0625 12C0.0625 9.90625 0.578125 7.96875 1.60938 6.1875C2.67188 4.40625 4.09375 3 5.875 1.96875C7.65625 0.90625 9.59375 0.375 11.6875 0.375C14.7188 0.375 17.3125 1.39062 19.4688 3.42188L16.3281 6.46875C15.3281 5.5 14.125 4.92188 12.7188 4.73438C11.4062 4.54688 10.1094 4.73438 8.82812 5.29688C7.54688 5.85938 6.51562 6.70312 5.73438 7.82812C4.89062 9.04688 4.46875 10.4375 4.46875 12C4.46875 13.3438 4.79688 14.5781 5.45312 15.7031C6.10938 16.7969 6.98438 17.6875 8.07812 18.375C9.17188 19.0312 10.375 19.3594 11.6875 19.3594C13.0938 19.3594 14.3281 19.0469 15.3906 18.4219C16.2344 17.9219 16.9375 17.25 17.5 16.4062C17.9062 15.7188 18.1719 15.0312 18.2969 14.3438H11.6875V10.3125H22.75C22.875 11 22.9375 11.6562 22.9375 12.2812Z" fill="#59A1E4"/>
</svg>
